<svg width="20" height="20" viewBox="0 0 20 20" fill="none" xmlns="http://www.w3.org/2000/svg">
<path d="M10 0.5C15.2466 0.5 19.5 4.75342 19.5 10C19.5 15.2466 15.2466 19.5 10 19.5C4.75342 19.5 0.5 15.2466 0.5 10C0.5 4.75342 4.75342 0.5 10 0.5ZM7.27344 5.85254C7.08646 5.85096 6.9006 5.88623 6.72754 5.95703C6.55447 6.02788 6.39786 6.13339 6.26562 6.26562C6.13339 6.39786 6.02788 6.55447 5.95703 6.72754C5.88623 6.9006 5.85096 7.08646 5.85254 7.27344C5.85416 7.46043 5.89303 7.64555 5.9668 7.81738C6.04054 7.98906 6.1479 8.14454 6.28223 8.27441L8.00781 10L6.28223 11.7246C6.14768 11.8546 6.04063 12.0107 5.9668 12.1826C5.89303 12.3544 5.85416 12.5396 5.85254 12.7266C5.85096 12.9135 5.88623 13.0994 5.95703 13.2725C6.02788 13.4455 6.13339 13.6021 6.26562 13.7344C6.39786 13.8666 6.55447 13.9721 6.72754 14.043C6.9006 14.1138 7.08646 14.149 7.27344 14.1475C7.46042 14.1458 7.64555 14.107 7.81738 14.0332C7.98927 13.9594 8.14444 13.8514 8.27441 13.7168L10 11.9922L11.7305 13.7227V13.7236L11.7373 13.7295C12.0031 13.9862 12.3591 14.1282 12.7285 14.125C13.0979 14.1217 13.4517 13.9741 13.7129 13.7129C13.9741 13.4517 14.1217 13.0979 14.125 12.7285C14.1282 12.3591 13.9862 12.0031 13.7295 11.7373L11.9922 10L13.7227 8.26855L13.7236 8.26953L13.7295 8.2627C13.9862 7.99694 14.1282 7.64094 14.125 7.27148C14.1217 6.90209 13.9741 6.54833 13.7129 6.28711C13.4517 6.02589 13.0979 5.87825 12.7285 5.875C12.3591 5.87179 12.0031 6.01383 11.7373 6.27051L10 8.00781L8.27441 6.28223H8.27539C8.14542 6.14768 7.98927 6.04063 7.81738 5.9668C7.64555 5.89303 7.46043 5.85416 7.27344 5.85254Z" fill="#9F9F9F" stroke="#D9D9D9"/>
</svg>
