<svg width="17" height="19" viewBox="0 0 17 19" fill="none" xmlns="http://www.w3.org/2000/svg">
<path d="M6.11084 9.67377L6.46436 10.0263C6.47302 10.0176 6.48331 10.0105 6.49463 10.0058C6.50599 10.0011 6.51846 9.99897 6.53076 9.99896C6.54309 9.99896 6.55551 10.0011 6.56689 10.0058C6.57823 10.0105 6.58849 10.0176 6.59717 10.0263V10.0273L7.9585 11.3886L8.31201 11.7431L8.66553 11.3886L10.0269 10.0273C10.0446 10.0096 10.0682 9.99898 10.0933 9.99896C10.1183 9.99896 10.1429 10.0096 10.1606 10.0273C10.1781 10.0449 10.188 10.0688 10.188 10.0937C10.188 10.1185 10.1781 10.1424 10.1606 10.1601L8.79834 11.5214L8.44385 11.8749L8.79834 12.2285L10.1606 13.5898C10.1781 13.6074 10.188 13.6313 10.188 13.6562C10.188 13.6813 10.1784 13.7059 10.1606 13.7236C10.1429 13.7413 10.1183 13.7509 10.0933 13.7509C10.0684 13.7509 10.0445 13.741 10.0269 13.7236L8.66553 12.3613L8.31201 12.0068L7.9585 12.3613L6.59717 13.7236C6.57949 13.741 6.5556 13.7509 6.53076 13.7509C6.50592 13.7509 6.48202 13.741 6.46436 13.7236C6.44663 13.7058 6.43604 13.6813 6.43604 13.6562C6.43606 13.6312 6.44665 13.6075 6.46436 13.5898L7.82568 12.2285L8.18018 11.8749L7.82568 11.5214L6.46436 10.1601H6.46338C6.45471 10.1514 6.44757 10.1412 6.44287 10.1298C6.43815 10.1184 6.43604 10.106 6.43604 10.0937C6.43605 10.0814 6.43816 10.0689 6.44287 10.0576C6.44759 10.0462 6.4547 10.0359 6.46338 10.0273L6.11084 9.67377Z" fill="#9F9F9F" stroke="#D9D9D9"/>
<path d="M8.3125 0.5C9.2822 0.5 10.2118 0.885609 10.8975 1.57129C11.5831 2.25697 11.9688 3.18655 11.9688 4.15625V5.25H16.125V16.625C16.125 17.1223 15.9278 17.5995 15.5762 17.9512C15.2245 18.3028 14.7473 18.5 14.25 18.5H2.375C1.87772 18.5 1.40046 18.3028 1.04883 17.9512C0.697197 17.5995 0.5 17.1223 0.5 16.625V5.25H4.65625V4.15625C4.65625 3.18655 5.04186 2.25697 5.72754 1.57129C6.41322 0.885609 7.3428 0.5 8.3125 0.5ZM0.6875 16.625C0.6875 17.0726 0.865173 17.5019 1.18164 17.8184C1.49811 18.1348 1.92745 18.3125 2.375 18.3125H14.25C14.6976 18.3125 15.1269 18.1348 15.4434 17.8184C15.7598 17.5019 15.9375 17.0726 15.9375 16.625V5.4375H0.6875V16.625ZM8.3125 0.6875C7.39253 0.6875 6.50989 1.05261 5.85938 1.70312C5.20886 2.35364 4.84375 3.23628 4.84375 4.15625V5.25H11.7812V4.15625C11.7812 3.23628 11.4161 2.35364 10.7656 1.70312C10.1151 1.05261 9.23247 0.6875 8.3125 0.6875Z" fill="#9F9F9F" stroke="#D9D9D9"/>
</svg>
